<svg version="1.1" id="Layer_1" xmlns="http://www.w3.org/2000/svg" xmlns:xlink="http://www.w3.org/1999/xlink" x="0px" y="0px"
	 width="100%" viewBox="0 0 1024 657" enable-background="new 0 0 1024 657" xml:space="preserve">
<path fill="currentColor" opacity="1.000000" stroke="none" 
	d="
M397.000000,0.999999 
	C397.444458,1.000000 397.888885,1.000000 398.668030,1.357983 
	C406.262115,10.946585 413.893646,19.912498 420.692108,29.470942 
	C430.468475,43.216240 439.934906,57.204006 448.997070,71.430092 
	C462.210327,92.172729 481.661682,98.152702 502.429993,90.913528 
	C521.977600,84.099861 537.068970,71.025002 549.998108,55.183468 
	C558.094604,45.263226 563.687988,33.935040 568.880066,22.375816 
	C572.053589,15.310509 574.968811,8.129220 578.000000,1.000006 
	C578.444458,1.000000 578.888916,1.000000 579.753174,1.331592 
	C583.819214,6.254552 587.383423,10.914011 591.128113,15.423705 
	C600.021118,26.133476 608.218933,37.578247 618.164795,47.211231 
	C627.951477,56.690037 638.995605,65.164726 650.494385,72.503105 
	C663.293091,80.671120 677.920227,84.237823 693.293823,81.922691 
	C707.790955,79.739555 719.879517,72.255440 730.042908,62.211323 
	C740.464539,51.911922 750.219604,40.879440 759.592224,29.607256 
	C763.139648,25.340883 764.491882,27.727013 766.532288,30.096701 
	C774.235413,39.043194 781.387146,48.524925 789.656921,56.906830 
	C798.778748,66.152359 808.542603,74.855911 818.659668,83.010345 
	C845.221191,104.418991 876.178833,113.972816 909.920959,114.867935 
	C918.244812,115.088745 926.715942,114.280472 934.937195,112.877518 
	C951.068604,110.124725 967.129517,106.881760 983.111084,103.350777 
	C997.151001,100.248779 1011.042786,96.476334 1025.000000,93.000000 
	C1025.000000,93.750000 1025.000000,94.500000 1024.657715,95.739433 
	C1020.205872,104.872910 1016.058289,113.499123 1011.993530,122.164185 
	C997.614197,152.817596 981.227417,182.068405 954.465576,203.996292 
	C945.373291,211.446167 936.185425,218.785034 926.893555,225.984070 
	C915.760010,234.610031 907.157776,249.686523 913.531921,266.374908 
	C921.827332,288.093506 928.879761,310.286926 936.622131,332.725159 
	C934.093506,333.269684 932.412781,333.857239 930.701843,333.964996 
	C913.927856,335.022095 897.101135,335.510651 880.385803,337.146576 
	C865.818848,338.572235 851.749390,342.510254 838.968872,350.034302 
	C829.225830,355.770172 822.424011,363.764099 818.861816,374.794861 
	C814.622925,387.921112 815.061157,401.226868 817.365417,414.280701 
	C819.947632,428.908966 824.332520,443.217682 827.892639,457.675385 
	C829.292664,463.360596 830.583435,469.072662 832.042603,475.276672 
	C820.776978,471.813660 810.402893,468.098541 799.757507,465.490509 
	C787.484680,462.483734 775.067932,459.364807 762.540771,458.266235 
	C745.493042,456.771210 728.368469,457.897919 711.752441,462.979706 
	C702.419067,465.834229 693.593445,469.819550 687.367493,477.442444 
	C679.906433,486.577789 680.100159,496.908691 684.228271,507.683044 
	C693.830566,532.744873 703.170776,557.907837 712.500183,583.073181 
	C714.728333,589.083679 716.498413,595.264038 718.313538,600.856079 
	C688.726929,590.186035 659.746704,578.571106 630.005432,569.433167 
	C611.340881,563.698608 591.646973,560.778870 572.196411,558.336792 
	C560.335510,556.847595 548.039795,558.339905 535.975098,559.076843 
	C520.875549,559.999329 507.067322,565.141296 495.226013,574.541504 
	C490.809235,578.047791 486.481384,582.596924 484.210022,587.619019 
	C481.829132,592.883240 481.609985,599.253601 481.072327,605.197144 
	C479.843170,618.785400 479.078430,632.415100 477.943146,646.012756 
	C477.607391,650.034485 476.664612,654.005676 476.000000,658.000000 
	C475.250000,658.000000 474.500000,658.000000 473.261841,657.656982 
	C457.536285,649.723145 442.115967,642.473694 427.116608,634.438538 
	C413.987640,627.405396 400.960724,620.049866 388.549805,611.837708 
	C367.578644,597.961365 347.289032,583.058655 326.413452,569.033203 
	C307.713654,556.469543 289.079529,543.689819 269.569031,532.480347 
	C243.762695,517.653748 215.552155,509.361053 185.715210,508.200775 
	C172.916718,507.703094 159.853104,508.240051 147.229889,510.283386 
	C124.472061,513.967224 102.368820,520.404175 82.148575,532.005737 
	C73.231865,537.121826 64.735092,542.900269 58.391350,551.171143 
	C54.350277,556.439819 50.930981,562.182983 46.938343,567.491821 
	C39.203094,577.776917 31.278406,587.920044 23.395494,598.093506 
	C19.245937,603.448792 15.018920,608.744019 10.127703,614.954102 
	C9.528617,610.483276 9.166917,607.423645 8.701903,604.379761 
	C7.154432,594.250183 5.609862,584.119873 3.983875,574.002747 
	C3.070888,568.322021 1.999834,562.666748 0.999997,557.000000 
	C1.000000,546.312439 1.000000,535.624878 1.378747,524.303467 
	C4.197060,502.970428 12.003472,484.218323 22.883244,466.689331 
	C35.347103,446.608124 52.315250,430.498718 69.725555,414.857147 
	C74.702339,410.385986 80.348625,406.651733 85.251175,402.108307 
	C91.388779,396.420258 97.962662,390.870972 102.722099,384.116028 
	C108.075714,376.517761 112.412254,367.950562 115.778099,359.257660 
	C122.363525,342.249603 128.960739,325.131927 133.742813,307.566772 
	C140.773300,281.742920 144.649979,255.175720 145.773468,228.443604 
	C146.587585,209.072021 145.477417,189.609070 144.912582,170.195953 
	C144.722748,163.671585 143.756638,157.147980 142.812927,150.672470 
	C141.359070,140.696396 139.637924,130.758881 137.994690,120.810883 
	C136.113174,109.420441 134.148575,98.043571 132.309586,86.646355 
	C131.482544,81.520782 130.872803,76.360153 130.164459,71.215431 
	C130.885056,70.677040 131.605637,70.138657 132.326233,69.600266 
	C133.323166,71.329605 134.007126,73.368683 135.364990,74.740860 
	C150.598602,90.134888 165.734116,105.635925 181.334473,120.652687 
	C188.628967,127.674278 196.609528,134.065643 204.752975,140.103577 
	C217.198486,149.331253 231.314606,155.194214 246.720337,156.851349 
	C261.177734,158.406464 275.048828,154.938309 287.942444,148.452316 
	C304.597748,140.074051 319.181000,128.851196 331.083191,114.388527 
	C339.177246,104.553215 347.434143,94.820190 354.973511,84.567345 
	C367.045624,68.150520 376.194672,50.028042 384.225220,31.345352 
	C388.559113,21.262737 392.746490,11.117163 397.000000,0.999999 
M276.251678,201.993515 
	C270.571625,202.662262 264.900909,203.764679 259.209106,203.887314 
	C252.463089,204.032639 245.603943,203.923523 238.966049,202.854935 
	C230.206985,201.444870 221.475159,199.451553 212.995972,196.848022 
	C206.195511,194.759933 199.788849,191.389313 193.871567,188.870560 
	C192.912628,209.268555 192.129669,229.613785 190.925034,249.934021 
	C190.354034,259.565918 189.571686,269.259338 187.830429,278.730988 
	C185.019562,294.020782 181.597061,309.212830 177.964340,324.333557 
	C171.897034,349.588013 162.953400,373.739624 150.815872,396.818512 
	C139.374100,418.574402 121.907494,434.552002 103.509995,449.946777 
	C94.553566,457.441406 85.817757,465.229462 77.378235,473.298981 
	C73.404633,477.098389 70.365738,481.875336 67.129875,485.925690 
	C79.364044,481.292419 91.420166,476.283386 103.768272,472.145782 
	C126.873375,464.403656 150.863129,461.564087 175.102524,461.131348 
	C183.774780,460.976532 192.466690,462.452942 201.162460,462.968048 
	C216.523453,463.877930 231.302261,467.545654 245.960373,471.942810 
	C274.327393,480.452332 300.299133,493.975952 324.744965,510.377594 
	C353.868988,529.917969 382.539093,550.133850 411.493622,569.928650 
	C418.900391,574.992310 426.638062,579.571899 434.475006,584.532959 
	C440.407104,561.756042 453.829285,545.488403 472.257538,532.972839 
	C494.065277,518.162048 518.640869,512.109558 544.550232,511.134491 
	C556.611023,510.680603 568.738770,511.431030 580.811584,512.087708 
	C587.972656,512.477295 595.144836,513.421387 602.207214,514.696411 
	C613.669678,516.765808 625.046204,519.311768 637.057861,521.779602 
	C636.811646,520.412842 636.450562,519.072998 636.344360,517.713196 
	C635.538574,507.397736 633.265930,496.919891 634.323792,486.792847 
	C636.598450,465.016571 647.581787,447.401611 665.196594,434.456451 
	C686.282471,418.960297 710.629944,412.500946 736.388489,411.101471 
	C747.519714,410.496704 758.711121,411.000122 769.687378,411.000122 
	C769.492554,409.881500 768.973938,408.454315 769.042969,407.056152 
	C769.636536,395.041504 769.443054,382.898529 771.214478,371.052551 
	C773.844666,353.464050 781.982239,338.134430 794.311035,325.226837 
	C809.553101,309.269409 829.054688,300.954193 849.773743,295.070679 
	C856.404114,293.187958 863.258606,292.094269 870.220642,290.594330 
	C869.869751,289.397766 869.682434,288.618103 869.414856,287.867004 
	C860.634583,263.213745 862.059631,239.157059 874.060974,215.912170 
	C882.288391,199.976700 896.258484,189.492828 910.125977,178.937622 
	C917.224976,173.534241 924.013855,167.723480 930.942810,162.096817 
	C930.869507,161.633575 930.796204,161.170334 930.722900,160.707092 
	C863.927490,166.719254 808.406494,143.593140 762.392822,95.857704 
	C761.261047,97.092697 760.546631,98.037956 759.666260,98.788605 
	C758.682678,99.627319 757.494202,100.222595 756.487793,101.038383 
	C738.869812,115.319527 719.258179,124.939690 696.518921,128.109741 
	C675.250244,131.074768 655.281860,127.219330 635.979431,118.492996 
	C617.589661,110.179245 601.969482,97.949120 587.415527,84.004143 
	C584.237366,87.888733 581.366150,91.907608 577.987305,95.441010 
	C562.339783,111.804344 544.575134,125.172867 523.229736,133.330917 
	C503.408142,140.906586 482.963409,142.636383 462.474457,137.578476 
	C442.399994,132.622849 425.864532,121.497139 413.291382,104.825111 
	C410.797577,101.518257 408.131805,98.341072 405.374756,94.890663 
	C404.079163,96.902733 403.115143,98.593582 401.968719,100.150085 
	C391.261383,114.687134 381.393738,129.965546 369.526215,143.487442 
	C359.470642,154.944794 347.626923,165.049072 335.564026,174.456390 
	C326.713928,181.358215 316.572662,186.896179 306.370361,191.686386 
	C297.067352,196.054321 286.907928,198.598190 276.251678,201.993515 
z"/>
<path fill="" opacity="0" stroke="none" 
	d="
M476.468628,658.000000 
	C476.664612,654.005676 477.607391,650.034485 477.943146,646.012756 
	C479.078430,632.415100 479.843170,618.785400 481.072327,605.197144 
	C481.609985,599.253601 481.829132,592.883240 484.210022,587.619019 
	C486.481384,582.596924 490.809235,578.047791 495.226013,574.541504 
	C507.067322,565.141296 520.875549,559.999329 535.975098,559.076843 
	C548.039795,558.339905 560.335510,556.847595 572.196411,558.336792 
	C591.646973,560.778870 611.340881,563.698608 630.005432,569.433167 
	C659.746704,578.571106 688.726929,590.186035 718.313538,600.856079 
	C716.498413,595.264038 714.728333,589.083679 712.500183,583.073181 
	C703.170776,557.907837 693.830566,532.744873 684.228271,507.683044 
	C680.100159,496.908691 679.906433,486.577789 687.367493,477.442444 
	C693.593445,469.819550 702.419067,465.834229 711.752441,462.979706 
	C728.368469,457.897919 745.493042,456.771210 762.540771,458.266235 
	C775.067932,459.364807 787.484680,462.483734 799.757507,465.490509 
	C810.402893,468.098541 820.776978,471.813660 832.042603,475.276672 
	C830.583435,469.072662 829.292664,463.360596 827.892639,457.675385 
	C824.332520,443.217682 819.947632,428.908966 817.365417,414.280701 
	C815.061157,401.226868 814.622925,387.921112 818.861816,374.794861 
	C822.424011,363.764099 829.225830,355.770172 838.968872,350.034302 
	C851.749390,342.510254 865.818848,338.572235 880.385803,337.146576 
	C897.101135,335.510651 913.927856,335.022095 930.701843,333.964996 
	C932.412781,333.857239 934.093506,333.269684 936.622131,332.725159 
	C928.879761,310.286926 921.827332,288.093506 913.531921,266.374908 
	C907.157776,249.686523 915.760010,234.610031 926.893555,225.984070 
	C936.185425,218.785034 945.373291,211.446167 954.465576,203.996292 
	C981.227417,182.068405 997.614197,152.817596 1011.993530,122.164185 
	C1016.058289,113.499123 1020.205872,104.872910 1024.657715,96.114433 
	C1025.000000,283.259613 1025.000000,470.519257 1025.000000,658.000000 
	C842.312500,658.000000 659.624878,658.000000 476.468628,658.000000 
z"/>
<path fill="#FFFFFF" opacity="0" stroke="none" 
	d="
M396.531342,0.999999 
	C392.746490,11.117163 388.559113,21.262737 384.225220,31.345352 
	C376.194672,50.028042 367.045624,68.150520 354.973511,84.567345 
	C347.434143,94.820190 339.177246,104.553215 331.083191,114.388527 
	C319.181000,128.851196 304.597748,140.074051 287.942444,148.452316 
	C275.048828,154.938309 261.177734,158.406464 246.720337,156.851349 
	C231.314606,155.194214 217.198486,149.331253 204.752975,140.103577 
	C196.609528,134.065643 188.628967,127.674278 181.334473,120.652687 
	C165.734116,105.635925 150.598602,90.134888 135.364990,74.740860 
	C134.007126,73.368683 133.323166,71.329605 132.326233,69.600266 
	C131.605637,70.138657 130.885056,70.677040 130.164459,71.215431 
	C130.872803,76.360153 131.482544,81.520782 132.309586,86.646355 
	C134.148575,98.043571 136.113174,109.420441 137.994690,120.810883 
	C139.637924,130.758881 141.359070,140.696396 142.812927,150.672470 
	C143.756638,157.147980 144.722748,163.671585 144.912582,170.195953 
	C145.477417,189.609070 146.587585,209.072021 145.773468,228.443604 
	C144.649979,255.175720 140.773300,281.742920 133.742813,307.566772 
	C128.960739,325.131927 122.363525,342.249603 115.778099,359.257660 
	C112.412254,367.950562 108.075714,376.517761 102.722099,384.116028 
	C97.962662,390.870972 91.388779,396.420258 85.251175,402.108307 
	C80.348625,406.651733 74.702339,410.385986 69.725555,414.857147 
	C52.315250,430.498718 35.347103,446.608124 22.883244,466.689331 
	C12.003472,484.218323 4.197060,502.970428 1.378747,523.834778 
	C1.000000,349.749634 1.000000,175.499283 1.000000,1.000000 
	C132.687454,1.000000 264.375061,1.000000 396.531342,0.999999 
z"/>
<path fill="#FFFFFF" opacity="0" stroke="none" 
	d="
M0.999997,557.468628 
	C1.999834,562.666748 3.070888,568.322021 3.983875,574.002747 
	C5.609862,584.119873 7.154432,594.250183 8.701903,604.379761 
	C9.166917,607.423645 9.528617,610.483276 10.127703,614.954102 
	C15.018920,608.744019 19.245937,603.448792 23.395494,598.093506 
	C31.278406,587.920044 39.203094,577.776917 46.938343,567.491821 
	C50.930981,562.182983 54.350277,556.439819 58.391350,551.171143 
	C64.735092,542.900269 73.231865,537.121826 82.148575,532.005737 
	C102.368820,520.404175 124.472061,513.967224 147.229889,510.283386 
	C159.853104,508.240051 172.916718,507.703094 185.715210,508.200775 
	C215.552155,509.361053 243.762695,517.653748 269.569031,532.480347 
	C289.079529,543.689819 307.713654,556.469543 326.413452,569.033203 
	C347.289032,583.058655 367.578644,597.961365 388.549805,611.837708 
	C400.960724,620.049866 413.987640,627.405396 427.116608,634.438538 
	C442.115967,642.473694 457.536285,649.723145 472.886841,657.656982 
	C315.786835,658.000000 158.573669,658.000000 1.000000,658.000000 
	C1.000000,624.646667 1.000000,591.291992 0.999997,557.468628 
z"/>
<path fill="#FFFFFF" opacity="0" stroke="none" 
	d="
M1025.000000,92.531342 
	C1011.042786,96.476334 997.151001,100.248779 983.111084,103.350777 
	C967.129517,106.881760 951.068604,110.124725 934.937195,112.877518 
	C926.715942,114.280472 918.244812,115.088745 909.920959,114.867935 
	C876.178833,113.972816 845.221191,104.418991 818.659668,83.010345 
	C808.542603,74.855911 798.778748,66.152359 789.656921,56.906830 
	C781.387146,48.524925 774.235413,39.043194 766.532288,30.096701 
	C764.491882,27.727013 763.139648,25.340883 759.592224,29.607256 
	C750.219604,40.879440 740.464539,51.911922 730.042908,62.211323 
	C719.879517,72.255440 707.790955,79.739555 693.293823,81.922691 
	C677.920227,84.237823 663.293091,80.671120 650.494385,72.503105 
	C638.995605,65.164726 627.951477,56.690037 618.164795,47.211231 
	C608.218933,37.578247 600.021118,26.133476 591.128113,15.423705 
	C587.383423,10.914011 583.819214,6.254552 580.086426,1.331592 
	C728.212402,1.000000 876.424805,1.000000 1025.000000,1.000000 
	C1025.000000,31.353264 1025.000000,61.707973 1025.000000,92.531342 
z"/>
<path fill="#FFFFFF" opacity="0" stroke="none" 
	d="
M577.531372,1.000006 
	C574.968811,8.129220 572.053589,15.310509 568.880066,22.375816 
	C563.687988,33.935040 558.094604,45.263226 549.998108,55.183468 
	C537.068970,71.025002 521.977600,84.099861 502.429993,90.913528 
	C481.661682,98.152702 462.210327,92.172729 448.997070,71.430092 
	C439.934906,57.204006 430.468475,43.216240 420.692108,29.470942 
	C413.893646,19.912498 406.262115,10.946585 399.001373,1.357983 
	C458.354218,1.000000 517.708435,1.000000 577.531372,1.000006 
z"/>
<path fill="#FFFFFF" opacity="0" stroke="none" 
	d="
M276.688812,201.969757 
	C286.907928,198.598190 297.067352,196.054321 306.370361,191.686386 
	C316.572662,186.896179 326.713928,181.358215 335.564026,174.456390 
	C347.626923,165.049072 359.470642,154.944794 369.526215,143.487442 
	C381.393738,129.965546 391.261383,114.687134 401.968719,100.150085 
	C403.115143,98.593582 404.079163,96.902733 405.374756,94.890663 
	C408.131805,98.341072 410.797577,101.518257 413.291382,104.825111 
	C425.864532,121.497139 442.399994,132.622849 462.474457,137.578476 
	C482.963409,142.636383 503.408142,140.906586 523.229736,133.330917 
	C544.575134,125.172867 562.339783,111.804344 577.987305,95.441010 
	C581.366150,91.907608 584.237366,87.888733 587.415527,84.004143 
	C601.969482,97.949120 617.589661,110.179245 635.979431,118.492996 
	C655.281860,127.219330 675.250244,131.074768 696.518921,128.109741 
	C719.258179,124.939690 738.869812,115.319527 756.487793,101.038383 
	C757.494202,100.222595 758.682678,99.627319 759.666260,98.788605 
	C760.546631,98.037956 761.261047,97.092697 762.392822,95.857704 
	C808.406494,143.593140 863.927490,166.719254 930.722900,160.707092 
	C930.796204,161.170334 930.869507,161.633575 930.942810,162.096817 
	C924.013855,167.723480 917.224976,173.534241 910.125977,178.937622 
	C896.258484,189.492828 882.288391,199.976700 874.060974,215.912170 
	C862.059631,239.157059 860.634583,263.213745 869.414856,287.867004 
	C869.682434,288.618103 869.869751,289.397766 870.220642,290.594330 
	C863.258606,292.094269 856.404114,293.187958 849.773743,295.070679 
	C829.054688,300.954193 809.553101,309.269409 794.311035,325.226837 
	C781.982239,338.134430 773.844666,353.464050 771.214478,371.052551 
	C769.443054,382.898529 769.636536,395.041504 769.042969,407.056152 
	C768.973938,408.454315 769.492554,409.881500 769.687378,411.000122 
	C758.711121,411.000122 747.519714,410.496704 736.388489,411.101471 
	C710.629944,412.500946 686.282471,418.960297 665.196594,434.456451 
	C647.581787,447.401611 636.598450,465.016571 634.323792,486.792847 
	C633.265930,496.919891 635.538574,507.397736 636.344360,517.713196 
	C636.450562,519.072998 636.811646,520.412842 637.057861,521.779602 
	C625.046204,519.311768 613.669678,516.765808 602.207214,514.696411 
	C595.144836,513.421387 587.972656,512.477295 580.811584,512.087708 
	C568.738770,511.431030 556.611023,510.680603 544.550232,511.134491 
	C518.640869,512.109558 494.065277,518.162048 472.257538,532.972839 
	C453.829285,545.488403 440.407104,561.756042 434.475006,584.532959 
	C426.638062,579.571899 418.900391,574.992310 411.493622,569.928650 
	C382.539093,550.133850 353.868988,529.917969 324.744965,510.377594 
	C300.299133,493.975952 274.327393,480.452332 245.960373,471.942810 
	C231.302261,467.545654 216.523453,463.877930 201.162460,462.968048 
	C192.466690,462.452942 183.774780,460.976532 175.102524,461.131348 
	C150.863129,461.564087 126.873375,464.403656 103.768272,472.145782 
	C91.420166,476.283386 79.364044,481.292419 67.129875,485.925690 
	C70.365738,481.875336 73.404633,477.098389 77.378235,473.298981 
	C85.817757,465.229462 94.553566,457.441406 103.509995,449.946777 
	C121.907494,434.552002 139.374100,418.574402 150.815872,396.818512 
	C162.953400,373.739624 171.897034,349.588013 177.964340,324.333557 
	C181.597061,309.212830 185.019562,294.020782 187.830429,278.730988 
	C189.571686,269.259338 190.354034,259.565918 190.925034,249.934021 
	C192.129669,229.613785 192.912628,209.268555 193.871567,188.870560 
	C199.788849,191.389313 206.195511,194.759933 212.995972,196.848022 
	C221.475159,199.451553 230.206985,201.444870 238.966049,202.854935 
	C245.603943,203.923523 252.463089,204.032639 259.209106,203.887314 
	C264.900909,203.764679 270.571625,202.662262 276.688812,201.969757 
M442.266663,292.942047 
	C443.419739,292.314972 444.510040,291.501862 445.735168,291.088196 
	C472.529022,282.041016 499.230408,272.700012 526.179565,264.139496 
	C545.892883,257.877502 565.858459,252.362595 585.852661,247.044922 
	C607.118958,241.388885 628.472839,236.010544 649.933594,231.151886 
	C671.129517,226.353195 692.489929,222.270599 713.812012,218.044785 
	C723.615906,216.101761 733.500671,214.567017 743.348755,212.847137 
	C743.297424,212.365250 743.246155,211.883362 743.194824,211.401489 
	C729.229431,212.263321 715.255127,213.003571 701.300903,214.018539 
	C684.753967,215.222076 668.217712,216.588104 651.689453,218.027512 
	C641.734131,218.894516 631.750366,219.679581 621.872559,221.134033 
	C605.946167,223.479080 590.054749,226.120407 574.225464,229.051346 
	C555.239319,232.566803 536.197388,235.942062 517.421387,240.397186 
	C476.179016,250.183121 435.425964,261.781982 395.730194,276.753387 
	C375.160126,284.511475 354.702789,292.619904 334.494690,301.271118 
	C316.322327,309.050842 298.406464,317.476349 280.668060,326.207397 
	C267.710510,332.585205 255.098022,339.700317 242.559952,346.885040 
	C226.097031,356.318817 209.844589,366.120880 193.554535,375.853119 
	C192.474014,376.498657 191.585724,377.775726 191.040024,378.958405 
	C186.102203,389.659912 181.609253,400.583344 176.266296,411.075256 
	C172.811844,417.858704 168.154587,424.029633 164.036331,430.475067 
	C252.242645,375.717865 344.307678,329.232697 442.266663,292.942047 
z"/>
<path fill="currentColor" opacity="1.000000" stroke="none" 
	d="
M441.867371,292.971436 
	C344.307678,329.232697 252.242645,375.717865 164.036331,430.475067 
	C168.154587,424.029633 172.811844,417.858704 176.266296,411.075256 
	C181.609253,400.583344 186.102203,389.659912 191.040024,378.958405 
	C191.585724,377.775726 192.474014,376.498657 193.554535,375.853119 
	C209.844589,366.120880 226.097031,356.318817 242.559952,346.885040 
	C255.098022,339.700317 267.710510,332.585205 280.668060,326.207397 
	C298.406464,317.476349 316.322327,309.050842 334.494690,301.271118 
	C354.702789,292.619904 375.160126,284.511475 395.730194,276.753387 
	C435.425964,261.781982 476.179016,250.183121 517.421387,240.397186 
	C536.197388,235.942062 555.239319,232.566803 574.225464,229.051346 
	C590.054749,226.120407 605.946167,223.479080 621.872559,221.134033 
	C631.750366,219.679581 641.734131,218.894516 651.689453,218.027512 
	C668.217712,216.588104 684.753967,215.222076 701.300903,214.018539 
	C715.255127,213.003571 729.229431,212.263321 743.194824,211.401489 
	C743.246155,211.883362 743.297424,212.365250 743.348755,212.847137 
	C733.500671,214.567017 723.615906,216.101761 713.812012,218.044785 
	C692.489929,222.270599 671.129517,226.353195 649.933594,231.151886 
	C628.472839,236.010544 607.118958,241.388885 585.852661,247.044922 
	C565.858459,252.362595 545.892883,257.877502 526.179565,264.139496 
	C499.230408,272.700012 472.529022,282.041016 445.735168,291.088196 
	C444.510040,291.501862 443.419739,292.314972 441.867371,292.971436 
z"/>
</svg>